<svg xmlns="http://www.w3.org/2000/svg" xmlns:xlink="http://www.w3.org/1999/xlink" width="512.00048828125" height="512.0009765625" viewBox="0 0 512.00048828125 512.0009765625" fill="none">
<path d="M256 0C114.565 0 0 114.615 0 256C0 397.387 114.565 512.001 256 512.001C363.092 512.001 454.987 446.352 493.227 353.067C489.477 356.758 485.449 360.12 481.494 363.094C467.503 373.616 448.954 381.592 429.654 375.041C412.207 369.119 401.157 354.911 394.454 340.054C391.497 333.502 389.118 326.486 387.414 319.147C378.526 336.468 368.088 353.558 355.627 366.721C341.468 381.673 322.703 393.496 299.094 391.254C279.663 389.409 264.216 381.035 253.654 367.361C249.477 361.953 246.2 355.941 243.84 349.654C238.53 357.522 232.627 364.993 225.92 371.201C212.983 383.175 196.648 391.463 176.64 390.827C138.827 390.827 117.036 360.223 110.08 325.761C103.039 290.874 109.025 246.255 129.28 202.027C155.157 145.528 192.74 102.32 211.414 88.3202C219.523 82.2397 231.145 84.0531 237.227 92.1602C243.309 100.267 241.711 111.68 233.6 117.76C220.832 127.333 186.467 165.188 162.56 217.387C144.773 256.222 140.738 292.833 145.92 318.507C151.168 344.504 163.77 354.134 176.854 354.134C177.079 354.134 177.482 354.134 177.707 354.134C186.006 354.439 193.324 351.388 200.96 344.321C208.984 336.894 216.589 325.586 224 311.254C231.222 297.289 237.707 281.654 244.267 265.814L244.48 264.96C248.246 255.87 252.201 246.669 256.214 237.867C258.993 231.606 261.929 225.376 265.174 219.52C271.053 208.904 275.9 200.872 279.254 195.414C280.916 192.71 282.2 190.634 283.307 189.014C283.828 188.251 284.566 187.285 285.227 186.454C285.502 186.105 286.063 185.178 286.934 184.32C287.313 183.946 288.286 183.137 289.707 182.187C290.42 181.711 291.725 180.942 293.547 180.267C295.222 179.647 298.895 178.602 303.36 179.414C308.611 180.367 312.896 183.43 315.52 187.52C317.737 190.977 318.294 194.272 318.294 195.84C318.56 198.857 317.867 201.231 317.867 201.814C317.485 203.413 316.8 204.639 316.8 205.014C316.357 206.069 315.715 207.009 315.307 207.787C314.413 209.492 313.28 211.904 311.68 214.614C308.506 219.996 303.565 227.715 296.96 237.867C294.462 242.424 291.983 247.544 289.494 253.014C279.335 275.986 273.974 300.284 274.987 319.574C275.604 331.329 278.53 339.606 282.667 344.961C286.405 349.799 292.141 353.791 302.507 354.774C310.552 355.538 319.217 352.062 329.174 341.547C339.279 330.874 348.602 314.915 357.76 296.321C364.064 283.523 369.692 270.488 375.254 257.707C377.788 251.877 380.402 246.087 382.934 240.427C390.392 223.757 398.806 206.214 408.534 195.84C415.386 188.533 426.712 188.045 434.134 194.774C441.554 201.502 442.234 213.056 435.627 220.587C431.463 225.332 427.201 234.324 424.107 247.254C421.103 259.811 419.612 274.326 420.267 288.427C420.928 302.648 423.674 315.44 427.947 324.907C432.254 334.452 435.762 338.93 441.601 340.267C457.944 344.009 481.069 319.74 489.601 308.907C500.843 294.629 512.001 274.057 512.001 246.187C506.838 109.351 394.149 0 256 0Z" fill="#000000">
</path>
</svg>